<?xml version="1.0" encoding="utf-8"?>
<!-- Generator: Adobe Illustrator 25.2.3, SVG Export Plug-In . SVG Version: 6.00 Build 0)  -->
<svg version="1.1" id="Capa_1" xmlns="http://www.w3.org/2000/svg" xmlns:xlink="http://www.w3.org/1999/xlink" x="0px" y="0px"
	 viewBox="0 0 1080 431.38" style="enable-background:new 0 0 1080 431.38;" xml:space="preserve">
<style type="text/css">
	.st0{fill:#E86A92;}
	.st1{fill:#FFFFFF;}
	.st2{fill:#E13D71;}
</style>
<g>
	<g>
		<path class="st1" d="M398.73,262.23V140.92h25.73v121.31H398.73z M452.53,262.23v-46.28c0-4.12-1.34-7.49-4.01-10.11
			c-2.67-2.62-6.02-3.93-10.03-3.93c-2.67,0-5.07,0.58-7.18,1.75c-2.12,1.17-3.79,2.81-5.01,4.93c-1.23,2.12-1.84,4.57-1.84,7.35
			l-9.86-4.85c0-6.35,1.36-11.92,4.09-16.71c2.73-4.79,6.49-8.49,11.28-11.11c4.79-2.62,10.25-3.93,16.38-3.93
			c6.35,0,11.92,1.31,16.71,3.93c4.79,2.62,8.52,6.24,11.2,10.86c2.67,4.62,4.01,10,4.01,16.12v51.97H452.53z"/>
		<path class="st1" d="M533.57,264.07c-8.47,0-16.04-1.89-22.72-5.68c-6.68-3.79-11.98-8.91-15.87-15.37
			c-3.9-6.46-5.85-13.7-5.85-21.72c0-7.91,1.92-15.04,5.77-21.39c3.84-6.35,9.11-11.39,15.79-15.12c6.68-3.73,14.31-5.6,22.89-5.6
			c8.35,0,15.9,1.84,22.64,5.51c6.74,3.68,12.06,8.72,15.96,15.12c3.9,6.41,5.85,13.56,5.85,21.47c0,8.13-1.95,15.4-5.85,21.81
			c-3.9,6.41-9.19,11.5-15.87,15.29C549.61,262.18,542.04,264.07,533.57,264.07z M533.57,240.68c3.56,0,6.74-0.78,9.52-2.34
			c2.78-1.56,4.93-3.81,6.43-6.77c1.5-2.95,2.26-6.32,2.26-10.11c0-3.68-0.78-6.93-2.34-9.77c-1.56-2.84-3.7-5.07-6.43-6.68
			c-2.73-1.61-5.88-2.42-9.44-2.42c-3.57,0-6.74,0.81-9.52,2.42c-2.79,1.62-4.96,3.87-6.52,6.77c-1.56,2.9-2.34,6.13-2.34,9.69
			c0,3.79,0.78,7.16,2.34,10.11c1.56,2.95,3.73,5.21,6.52,6.77C526.83,239.9,530.01,240.68,533.57,240.68z"/>
		<path class="st1" d="M583.87,202.91v-21.89h62.33v21.89H583.87z M602.08,262.23V147.44h25.73v114.79H602.08z"/>
		<path class="st2" d="M718.71,264.4c-4.79,0-9.52-0.64-14.2-1.92s-8.97-3.06-12.87-5.35c-3.9-2.28-7.3-4.93-10.19-7.94l14.7-14.7
			c2.78,2.9,5.99,5.15,9.61,6.77c3.62,1.62,7.66,2.42,12.11,2.42c2.78,0,4.98-0.44,6.6-1.34c1.61-0.89,2.42-2.17,2.42-3.84
			c0-2-0.95-3.48-2.84-4.43c-1.9-0.95-4.37-1.84-7.44-2.67c-3.07-0.84-6.27-1.78-9.61-2.84c-3.34-1.06-6.52-2.48-9.52-4.26
			c-3.01-1.78-5.46-4.23-7.35-7.35c-1.9-3.12-2.84-7.19-2.84-12.2c0-5.23,1.34-9.77,4.01-13.62c2.67-3.84,6.46-6.88,11.36-9.11
			c4.9-2.23,10.75-3.34,17.54-3.34c6.79,0,13.14,1.2,19.05,3.59c5.9,2.4,10.64,5.93,14.2,10.61l-14.54,14.87
			c-2.56-3.01-5.43-5.15-8.61-6.43c-3.17-1.28-6.27-1.92-9.27-1.92c-2.9,0-5.07,0.45-6.52,1.34c-1.45,0.89-2.17,2.06-2.17,3.51
			c0,1.67,0.97,3.01,2.92,4.01c1.95,1,4.4,1.9,7.35,2.67c2.95,0.78,6.1,1.7,9.44,2.76c3.34,1.06,6.52,2.56,9.52,4.51
			c3.01,1.95,5.46,4.51,7.35,7.69c1.89,3.17,2.84,7.33,2.84,12.45c0,7.91-2.98,14.23-8.94,18.96
			C736.89,262.04,728.84,264.4,718.71,264.4z"/>
		<path class="st2" d="M778.52,170c-3.9,0-7.18-1.39-9.86-4.18c-2.67-2.78-4.01-6.12-4.01-10.03c0-4.01,1.34-7.35,4.01-10.03
			c2.67-2.67,5.96-4.01,9.86-4.01c4.12,0,7.44,1.34,9.94,4.01c2.51,2.67,3.76,6.02,3.76,10.03c0,3.9-1.25,7.24-3.76,10.03
			C785.96,168.6,782.64,170,778.52,170z M765.66,262.23v-81.21h25.73v81.21H765.66z"/>
		<path class="st2" d="M809.1,262.23v-81.21h25.73v81.21H809.1z M861.23,262.23v-47.45c0-4.01-1.25-7.16-3.76-9.44
			c-2.51-2.28-5.6-3.43-9.27-3.43c-2.56,0-4.85,0.53-6.85,1.59c-2,1.06-3.59,2.54-4.76,4.43c-1.17,1.9-1.75,4.18-1.75,6.85
			l-9.86-4.51c0-6.35,1.42-11.83,4.26-16.46c2.84-4.62,6.63-8.19,11.36-10.69c4.73-2.51,10.16-3.76,16.29-3.76
			c5.57,0,10.61,1.28,15.12,3.84c4.51,2.56,8.13,6.13,10.86,10.69c2.73,4.57,4.09,10.03,4.09,16.38v51.97H861.23z M913.03,262.23
			v-47.45c0-4.01-1.25-7.16-3.76-9.44c-2.51-2.28-5.54-3.43-9.11-3.43c-2.45,0-4.71,0.53-6.77,1.59c-2.06,1.06-3.65,2.54-4.76,4.43
			c-1.12,1.9-1.67,4.18-1.67,6.85l-14.87-2c0.33-6.91,2-12.87,5.01-17.88s7.07-8.86,12.2-11.53c5.12-2.67,10.86-4.01,17.21-4.01
			c6.12,0,11.64,1.31,16.54,3.93c4.9,2.62,8.74,6.32,11.53,11.11c2.78,4.79,4.18,10.58,4.18,17.38v50.46H913.03z"/>
		<path class="st2" d="M954.97,296.48V181.02h25.73v20.72l-4.18,19.88l3.84,19.72v55.14H954.97z M1002.09,263.9
			c-5.57,0-10.64-1.06-15.21-3.17c-4.57-2.12-8.27-5.04-11.11-8.77c-2.84-3.73-4.49-7.99-4.93-12.78v-34.25
			c0.44-4.9,2.12-9.27,5.01-13.12c2.9-3.84,6.63-6.88,11.2-9.11c4.57-2.23,9.58-3.34,15.04-3.34c7.57,0,14.34,1.84,20.3,5.51
			c5.96,3.68,10.67,8.69,14.12,15.04c3.45,6.35,5.18,13.59,5.18,21.72c0,8.13-1.7,15.35-5.1,21.64c-3.4,6.29-8.1,11.31-14.12,15.04
			C1016.46,262.04,1009.66,263.9,1002.09,263.9z M997.24,240.68c3.56,0,6.71-0.81,9.44-2.42c2.73-1.61,4.9-3.87,6.52-6.77
			c1.61-2.9,2.42-6.18,2.42-9.86c0-3.68-0.81-6.96-2.42-9.86c-1.62-2.9-3.76-5.15-6.43-6.77c-2.67-1.61-5.79-2.42-9.36-2.42
			c-3.57,0-6.71,0.81-9.44,2.42c-2.73,1.62-4.87,3.87-6.43,6.77c-1.56,2.9-2.34,6.18-2.34,9.86c0,3.68,0.78,6.96,2.34,9.86
			c1.56,2.9,3.7,5.15,6.43,6.77C990.7,239.87,993.79,240.68,997.24,240.68z"/>
	</g>
</g>
<path class="st1" d="M279.29,201.68c-1.01-0.42-2.41-0.7-3.92-0.98c-0.59-0.14-1.22-0.24-1.89-0.38c-2.31-0.42-4.75-0.91-6.54-1.75
	c-0.38-0.21-0.73-0.42-1.12-0.63c-0.66-0.42-1.33-0.8-1.99-1.29c-0.38-0.17-0.77-0.45-1.15-0.73c-1.36-0.87-2.69-1.75-4.02-2.69
	c-0.49-0.31-0.98-0.66-1.47-1.05c-1.47-1.05-2.9-2.13-4.3-3.25c-0.14-0.07-0.24-0.17-0.38-0.31c-1.29-1.01-2.55-2.03-3.78-3.11
	c-0.66-0.52-1.29-1.08-1.92-1.68c-0.91-0.77-1.78-1.57-2.62-2.41c-0.7-0.63-1.4-1.26-2.06-1.96c-0.7-0.66-1.4-1.36-2.06-2.06
	c-0.91-0.91-1.82-1.85-2.66-2.83c-0.49-0.49-0.94-0.98-1.36-1.5c-1.08-1.19-2.17-2.45-3.18-3.71l-0.1-0.1
	c-3.29-3.99-6.36-8.22-9.2-12.59c-0.56-0.87-1.12-1.78-1.68-2.66c-0.52-0.91-1.08-1.82-1.61-2.73c-1.05-1.82-2.06-3.67-3.01-5.52
	c-0.56-1.08-1.08-2.13-1.61-3.22c-0.77-1.57-1.5-3.18-2.2-4.79c-2.59-6.05-4.75-12.31-6.43-18.77c0-0.03,0-0.03,0-0.03
	c-2.73-10.56-4.2-21.64-4.2-33.07c0-6.22,0.42-12.38,1.29-18.36c0.21-1.57,0.45-3.15,0.73-4.68c14.61-17.52,32.13-32.48,51.81-44.26
	c-0.84,1.78-1.68,3.57-2.45,5.38c-0.24,0.59-0.49,1.15-0.73,1.75c-0.66,1.57-1.33,3.22-1.92,4.82c-0.1,0.28-0.21,0.52-0.28,0.8
	c-0.8,2.03-1.54,4.09-2.2,6.19c-0.73,2.13-1.4,4.34-2.03,6.54c-0.98,3.25-1.82,6.54-2.55,9.89c0,0,0,0,0,0.03
	c-1.12,4.86-2.03,9.82-2.69,14.86c-1.05,7.62-1.57,15.42-1.57,23.35C240.24,133.71,254.92,171.86,279.29,201.68z"/>
<path class="st1" d="M196.92,66.69c-0.35,0.59-0.7,1.19-0.98,1.82l-0.03,0.03c-17.59,13.74-31.54,31.85-40.24,52.72
	c0-0.03-0.03-0.03-0.03-0.03c-0.04,0.1-0.07,0.24-0.1,0.35c0,0.03,0,0.03,0,0.07v0.03c-1.75,4.16-3.29,8.39-4.55,12.76
	c-0.04,0.03-0.04,0.1-0.07,0.14c-5.31,13.6-12.06,26.47-20,38.46c0.17-3.99,0.24-8.01,0.24-12.06c0-21.19-2.1-41.92-6.15-61.92
	c-1.82-9.23-4.09-18.29-6.75-27.2c-2.97-10.07-6.43-19.93-10.42-29.51c18.22,8.04,37.34,14.4,57.2,18.88
	c0.49,0.14,0.98,0.24,1.47,0.31h0.03C176.5,63.79,186.6,65.5,196.92,66.69z"/>
<path class="st0" d="M191.46,183.43c2.55,10.21,3.92,20.87,3.92,31.85c0,17.9-3.6,34.96-10.1,50.52c-1.36,3.32-2.9,6.57-4.54,9.75
	c-0.98,2.2-2.1,4.34-3.36,6.36c-0.73,1.26-1.54,2.48-2.41,3.67c-0.04,0-0.04,0.04-0.04,0.04c-0.03,0.04-0.03,0.07-0.07,0.1
	c-0.07,0.14-0.17,0.28-0.28,0.38c-9.89,13.18-25.66,21.75-43.42,21.75c-11.71,0-22.59-3.74-31.43-10.07
	c-13.78-9.79-22.76-25.91-22.76-44.12c0-13.11,4.96-24.86,12.38-34.47c2.34-3.04,11.71-10.59,11.71-10.59
	c11.22-10.66,21.26-22.62,29.86-35.56c7.94-11.99,14.68-24.86,20-38.46c0.03-0.04,0.03-0.1,0.07-0.14
	c1.43-3.64,3.88-10.91,4.55-12.76v-0.03c0.07-0.24,0.14-0.38,0.14-0.38c8.71-20.87,22.66-38.98,40.24-52.72
	c-2.94,5.42-5.49,11.12-7.59,16.99c-0.03,0-0.03,0.03-0.03,0.03c-5.1,13.98-7.9,29.09-7.9,44.86c0,10.45,5.21,35.03,5.66,36.19
	c0.17,0.45,0.35,0.94,0.52,1.4c1.89,4.86,3.5,9.89,4.82,15.03c0,0.04,0,0.04,0,0.04C191.43,183.19,191.46,183.33,191.46,183.43z"/>
<path class="st2" d="M318.2,253.67c0,2.62-0.17,5.21-0.56,7.73c-2.59,18.11-14.12,33.35-30,41.05c-7.13,3.46-15.17,5.42-23.63,5.42
	c-14.4,0-27.48-5.63-37.16-14.75c-0.02-0.02-0.05-0.04-0.06-0.06c-8.77-10.31-13.12-20.73-15.18-25.64
	c-0.04-0.03-0.04-0.1-0.07-0.14c-9.89-23.39-15.59-48.95-16.08-75.8v-0.04c-0.07-1.4-0.07-2.76-0.07-4.16c0-1.43,0-2.87,0.03-4.27
	c0.45-22.41,4.51-43.95,11.61-64.05c1.68,6.47,3.85,12.73,6.43,18.77c0.7,1.61,1.43,3.22,2.2,4.79c0.52,1.08,1.05,2.13,1.61,3.22
	c0.94,1.85,1.96,3.71,3.01,5.52c0.52,0.91,1.08,1.82,1.61,2.73c0.56,0.87,1.12,1.78,1.68,2.66c2.83,4.37,5.91,8.6,9.2,12.59l0.1,0.1
	c1.01,1.26,2.1,2.52,3.18,3.71c0.42,0.52,0.87,1.01,1.36,1.5c0.84,0.98,1.75,1.92,2.66,2.83c0.66,0.7,1.36,1.4,2.06,2.06
	c0.66,0.7,1.36,1.33,2.06,1.96c0.84,0.84,1.71,1.64,2.62,2.41c0.63,0.59,1.26,1.15,1.92,1.68c1.22,1.08,2.48,2.13,3.78,3.11
	c0.14,0.14,0.24,0.24,0.38,0.31c1.4,1.15,2.83,2.24,4.3,3.25c0.49,0.38,0.98,0.73,1.47,1.05c1.33,0.94,2.66,1.85,4.02,2.69
	c0.38,0.28,0.77,0.56,1.15,0.73c0.66,0.49,1.33,0.87,1.99,1.29c0.35,0.24,0.7,0.45,1.12,0.63c1.78,0.84,4.23,1.33,6.54,1.75
	c0.66,0.14,1.29,0.24,1.89,0.38c1.5,0.28,2.9,0.56,3.92,0.98l0.04,0.03c7.31,2.1,13.95,5.73,19.58,10.52h0.04
	c6.92,5.84,12.38,13.43,15.66,22.03C316.94,240.28,318.2,246.82,318.2,253.67z"/>
</svg>
