<svg width="192" height="73" viewBox="0 0 192 73" fill="none" xmlns="http://www.w3.org/2000/svg">
<path d="M174.132 15.8523C177.584 15.8523 180.661 16.6778 183.363 18.329C186.065 19.9301 188.166 22.2066 189.667 25.1587C191.169 28.0606 191.919 31.3879 191.919 35.1405C191.919 38.8931 191.169 42.2454 189.667 45.1974C188.166 48.0994 186.065 50.3759 183.363 52.0271C180.661 53.6281 177.584 54.4287 174.132 54.4287C169.078 54.4287 164.976 52.7025 161.823 49.2501L161.073 53.6782H150.866V1.14221H162.649V20.1302C165.751 17.2783 169.579 15.8523 174.132 15.8523ZM171.355 44.5219C173.957 44.5219 176.083 43.6713 177.734 41.9702C179.385 40.219 180.211 37.9424 180.211 35.1405C180.211 32.3386 179.385 30.087 177.734 28.3859C176.083 26.6347 173.957 25.7591 171.355 25.7591C168.753 25.7591 166.627 26.6347 164.976 28.3859C163.374 30.1371 162.574 32.3886 162.574 35.1405C162.574 37.8924 163.374 40.1439 164.976 41.8951C166.627 43.6463 168.753 44.5219 171.355 44.5219Z" fill="#292F3D"/>
<path d="M146.494 16.6029V53.6783H136.287L135.536 49.4004C134.135 51.0515 132.409 52.3274 130.357 53.228C128.356 54.0786 126.155 54.5039 123.753 54.5039C119.2 54.5039 115.572 53.0028 112.871 50.0008C110.169 46.9987 108.818 42.8459 108.818 37.5422V16.6029H120.601V36.8668C120.601 39.2684 121.176 41.1447 122.327 42.4956C123.528 43.8466 125.154 44.522 127.205 44.522C129.457 44.522 131.258 43.7465 132.609 42.1954C134.01 40.5943 134.71 38.5429 134.71 36.0412V16.6029H146.494Z" fill="#292F3D"/>
<path d="M93.1028 1.14221H104.886V53.6782H93.1028V1.14221Z" fill="#292F3D"/>
<path d="M77.1485 54.5039C72.9956 54.5039 69.3681 53.7283 66.266 52.1773C63.2139 50.5762 60.8373 48.3246 59.1361 45.4226C57.485 42.5207 56.6594 39.1183 56.6594 35.2156C56.6594 31.363 57.51 27.9857 59.2112 25.0837C60.9124 22.1317 63.289 19.8551 66.3411 18.254C69.3932 16.6029 72.9206 15.7773 76.9233 15.7773C79.6752 15.7773 82.302 16.2777 84.8037 17.2784C87.3054 18.229 89.5319 19.655 91.4833 21.5563L84.9538 28.6862C82.8524 26.7348 80.3757 25.7592 77.5237 25.7592C74.8219 25.7592 72.6204 26.6348 70.9192 28.386C69.218 30.0871 68.3675 32.3387 68.3675 35.1406C68.3675 37.9425 69.193 40.2191 70.8442 41.9703C72.5453 43.6714 74.7718 44.522 77.5237 44.522C80.5758 44.522 83.1776 43.4463 85.3291 41.2948L92.0086 48.3496C87.8558 52.4524 82.9024 54.5039 77.1485 54.5039Z" fill="#292F3D"/>
<path d="M179.223 63.0254H181.266V72.7543H179V66.6668L176.137 70.1692H175.692L172.801 66.6529V72.7543H170.536V63.0254H172.579L175.901 67.1671L179.223 63.0254Z" fill="#74777C"/>
<path d="M149.708 72.9627C148.308 72.9627 147.22 72.5782 146.441 71.8092C145.672 71.0309 145.288 69.9468 145.288 68.557V63.0254H147.567V68.557C147.567 69.2982 147.753 69.8819 148.123 70.3082C148.503 70.7344 149.031 70.9475 149.708 70.9475C150.365 70.9475 150.884 70.7344 151.264 70.3082C151.644 69.8819 151.834 69.2982 151.834 68.557V63.0254H154.113V68.557C154.113 69.9468 153.729 71.0309 152.96 71.8092C152.191 72.5782 151.107 72.9627 149.708 72.9627Z" fill="#74777C"/>
<path d="M126.575 63.0254H128.855V72.7543H126.575V63.0254Z" fill="#74777C"/>
<path d="M107.968 63.0254H110.011V72.7543H107.745V66.6668L104.882 70.1692H104.437L101.547 66.6529V72.7543H99.2811V63.0254H101.324L104.646 67.1671L107.968 63.0254Z" fill="#74777C"/>
<path d="M77.7801 70.8363H83.1449V72.7543H75.5703V63.0254H82.992V64.9295H77.7801V66.903H82.7141V68.7376H77.7801V70.8363Z" fill="#74777C"/>
<path d="M54.6583 69.5437H53.338V72.7543H51.0587V63.0254H55.798C56.5022 63.0254 57.1184 63.1644 57.6465 63.4423C58.1746 63.711 58.5823 64.0956 58.8696 64.5959C59.1568 65.0963 59.3004 65.6707 59.3004 66.3193C59.3004 67.0606 59.1058 67.6953 58.7167 68.2234C58.3368 68.7515 57.7947 69.1268 57.0906 69.3492L59.8424 72.7543H57.1323L54.6583 69.5437ZM57.0489 66.3471C57.0489 65.9116 56.9145 65.5734 56.6458 65.3325C56.3864 65.0916 56.0158 64.9712 55.5339 64.9712H53.3241V67.7092H55.5339C56.025 67.7092 56.4003 67.5933 56.6597 67.3617C56.9191 67.1208 57.0489 66.7826 57.0489 66.3471Z" fill="#74777C"/>
<path d="M31.5558 63.0254C32.3063 63.0254 32.9595 63.169 33.5155 63.4562C34.0807 63.7342 34.5161 64.1373 34.8219 64.6654C35.1277 65.1935 35.2805 65.8097 35.2805 66.5139C35.2805 67.2181 35.1277 67.8342 34.8219 68.3624C34.5161 68.8905 34.0807 69.2982 33.5155 69.5854C32.9595 69.8634 32.3063 70.0024 31.5558 70.0024H29.1791V72.7543H26.8998V63.0254H31.5558ZM31.4446 68.0149C31.9264 68.0149 32.3063 67.8806 32.5843 67.6119C32.8715 67.3432 33.0151 66.9818 33.0151 66.5278C33.0151 66.0738 32.8715 65.7124 32.5843 65.4437C32.3063 65.175 31.9264 65.0407 31.4446 65.0407H29.1653V68.0149H31.4446Z" fill="#74777C"/>
<path d="M61.6409 0.692871L41.5974 54.5964L21.9449 54.5964L41.9883 0.69287L61.6409 0.692871Z" fill="url(#paint0_linear_37_58)"/>
<path d="M40.4144 54.5958L20.3709 0.692329L0.718396 0.692329L20.7619 54.5958L40.4144 54.5958Z" fill="url(#paint1_linear_37_58)"/>
<defs>
<linearGradient id="paint0_linear_37_58" x1="64.6629" y1="30.5085" x2="11.2534" y2="17.042" gradientUnits="userSpaceOnUse">
<stop stop-color="#AAD1FF"/>
<stop offset="1" stop-color="#AAD1FF" stop-opacity="0"/>
</linearGradient>
<linearGradient id="paint1_linear_37_58" x1="40.4144" y1="27.6441" x2="0.718396" y2="27.6441" gradientUnits="userSpaceOnUse">
<stop stop-color="#1D85FF"/>
<stop offset="1" stop-color="#1DFFD6"/>
</linearGradient>
</defs>
</svg>
